<?xml version="1.0" encoding="utf-8"?>
<!DOCTYPE svg PUBLIC "-//W3C//DTD SVG 1.0//EN" "http://www.w3.org/TR/2001/REC-SVG-20010904/DTD/svg10.dtd" [
	<!ENTITY ns_extend "http://ns.adobe.com/Extensibility/1.0/">
	<!ENTITY ns_ai "http://ns.adobe.com/AdobeIllustrator/10.0/">
	<!ENTITY ns_graphs "http://ns.adobe.com/Graphs/1.0/">
	<!ENTITY ns_vars "http://ns.adobe.com/Variables/1.0/">
	<!ENTITY ns_imrep "http://ns.adobe.com/ImageReplacement/1.0/">
	<!ENTITY ns_sfw "http://ns.adobe.com/SaveForWeb/1.0/">
	<!ENTITY ns_custom "http://ns.adobe.com/GenericCustomNamespace/1.0/">
	<!ENTITY ns_adobe_xpath "http://ns.adobe.com/XPath/1.0/">
]>
<svg version="1.0" id="Calque_1" xmlns:x="&ns_extend;" xmlns:i="&ns_ai;" xmlns:graph="&ns_graphs;"
	 xmlns="http://www.w3.org/2000/svg" xmlns:xlink="http://www.w3.org/1999/xlink" fill="#626c47" x="0px" y="0px" class="footer-texture" viewBox="0 0 1472.598 59.3">
    <path d="M1472.433,34.875c-3.69-.262-16.733-.943-16.733-.943s-12.91,2.78-15.22,1.885-17.24-1.885-17.24-1.885-43.76.363-50.72,0a86.538,86.538,0,0,0-15.22.943s-12.64-2.6-13.19-3.771-7.1,1.885-7.1,1.885a30.715,30.715,0,0,0-10.15-.943c-4.93.538-49.73-1.615-60.86,0s-24.61,1.569-28.4,1.886-10.87,1.945-14.21.943a35.418,35.418,0,0,0-10.14-.943c-2.44.058-10.13,2.682-13.19,2.827s-20.64-3.295-26.37-4.713-10.19-3.243-16.23-2.827-28.32-4.9-35.51-5.656-8.67,1.6-13.19,0-14.89-3.2-19.27-2.826-13.34.449-18.26.941-7.23-.317-21.3.943-25.36,10.368-25.36,10.368-11.91,5.285-13.19,5.655-11.66-1.611-13.188-.942-13.837,3.968-17.245,2.827-11.619-2.964-14.2-2.827-11.534,1.7-13.188,1.885-5.735,3.595-7.1,2.828-16.182-3.2-19.274-2.828a35.212,35.212,0,0,0-5.073.942l-23.331,1.886-29.418,2.828s-33.233-1.327-38.548-.943-32.694,1.024-33.476.943-13.188-1.886-13.188-1.886-3.887-.979-9.13-1.885a29.5,29.5,0,0,1-12.173-4.713,14.359,14.359,0,0,0-6.086-2.827c-1.359-.247-24.346,3.77-24.346,3.77h-9.131l-11.158-1.885s-11.985.636-13.187.942-10.785,2.172-13.188,1.885-14.739.258-17.245,0-4.94.855-10.144,1.885S638.072,37.7,638.072,37.7H579.236s-11.978-2.765-16.231-1.885-24.346.942-24.346.942l-12.174-.942s-43.047-3.994-50.72-3.771-14.018.5-18.26,0-49.228-3.8-51.735-3.77S374.8,31,373.308,31.1s-18.26,0-18.26,0L344.9,27.333s-13.4-6.083-24.346-4.712c0,0-17.92-4.66-19.274-4.713s-21.492-2.167-23.332-1.885-20.821.992-27.389,0-22.992-2.426-24.347-2.828-8.106.408-9.129.943-34.189.69-38.548,0-11.159-.943-11.159-.943l-10.144.943-7.1-3.77-11.159.942s-12.7-1.134-14.2-1.884-14.261-.215-20.288,0S92.531,5.963,86.226,6.6A63.229,63.229,0,0,1,63.909,4.712c-9.2-2.253-26.045-.342-34.491.944s-13.187,0-13.187,0L0,0V59.3l1472.433-.533a65.425,65.425,0,0,1,0-10.9C1472.966,41.839,1472,39,1472.433,34.875Z"
    />
</svg>